<svg id="Layer_1" data-name="Layer 1" xmlns="http://www.w3.org/2000/svg" viewBox="0 0 591 231"><path d="M419.28.5H426q0,16,0,32.06c.06,2.32,0,4.91,1.52,6.82,2.88,2.6,7.11,1.92,10.63,1.5,0,2.13,0,4.25-.05,6.38-4.29-.13-8.81.14-12.84-1.61s-6.11-6-5.95-10.2C419.29,23.8,419.32,12.15,419.28.5Z" transform="translate(-0.5 -0.5)" fill="#fff"/><path d="M37.7,1.89c2.17.05,4.35.05,6.52,0-.2,8.87.52,17.74.23,26.59.68,6.71.18,13.48.33,20.21-2.25,0-4.49,0-6.73,0,0-.78.07-2.34.1-3.11-2,1.35-3.92,3.47-6.54,3.54-3.55,0-7.4.47-10.64-1.32-5-3.3-7.39-9.48-7-15.35-.34-5.41,1.29-11.35,5.75-14.77,5.62-3.18,13.32-3.46,18,1.6C37.64,13.51,37.69,7.7,37.7,1.89ZM26,22.21C19.91,25,19.91,33.12,22,38.48c1.27,4,6.32,5.57,10.05,4.52,7.56-3.75,7.58-15.46,1.65-20.7C31.25,21.26,28.31,20.59,26,22.21Z" transform="translate(-0.5 -0.5)" fill="#fff"/><path d="M95.23,2c2.29-.05,4.58-.06,6.87-.07-.08,10.86,0,21.72,0,32.58.09,2.27.12,4.91,1.82,6.63,1.49,1.47,3.66,1.55,5.62,1.57l4.54-.35c.1,1.94.13,3.89.13,5.83-4.4-.36-9.13.85-13.19-1.39a12,12,0,0,1-5.71-10.32C95.26,25,95.34,13.49,95.23,2Z" transform="translate(-0.5 -0.5)" fill="#fff"/><path d="M122.34,1.23h8.81c0,2.65,0,5.31,0,8-2.93,0-5.87,0-8.8,0Q122.35,5.21,122.34,1.23Z" transform="translate(-0.5 -0.5)" fill="#fff"/><path d="M185.82.84c3,0,6.08,0,9.12,0V9.2c-3,0-6.07,0-9.1,0C185.83,6.42,185.83,3.63,185.82.84Z" transform="translate(-0.5 -0.5)" fill="#fff"/><path d="M356.55,7c2.17-.56,4.36-1.07,6.49-1.8.2,3.28.12,6.56,0,9.84,4,0,8.08,0,12.13-.08,0,1.93,0,3.85,0,5.78-4.07,0-8.14-.06-12.2,0,.23,4.28.27,8.58.66,12.86C364,36,363,39,365,41.05c3.49,2.07,7.59.4,10.88-1.3,0,2.09,0,4.18.06,6.26a17,17,0,0,1-14.61.74c-2.16-1.78-4.55-4.23-4.34-7.24,0-6.31,0-12.61,0-18.92-2.33.06-4.66.09-7,.13,0-1.92,0-3.85-.06-5.77L357,15C356.78,12.35,356.63,9.65,356.55,7Z" transform="translate(-0.5 -0.5)" fill="#fff"/><path d="M489.69,14.69a16.7,16.7,0,0,1,12.71.23c2.88,1.68,4.49,4.92,5.08,8.12l-6.27,0A7.35,7.35,0,0,0,492.48,20c-3.18,1.54-3.82,5.48-4.41,8.59-.87,5.19.84,11.54,6.37,13.31,2.7-.61,5.94-1.78,6-5.1a18.92,18.92,0,0,1,7.57,0c-.8,4.14-2.9,8.45-7.06,10.06-4.91,1.06-10.51,1.13-14.64-2.16-5.42-4.71-5.69-12.48-5.14-19.13A15.77,15.77,0,0,1,489.69,14.69Z" transform="translate(-0.5 -0.5)" fill="#fff"/><path d="M526,14.21c6.35-1.81,14.53-.3,18,5.87,4.66,6.15,3.87,14.93.1,21.3a24.45,24.45,0,0,1-8.76,5.73c-3.92,0-8.21.82-11.67-1.49-3.39-1.52-5.71-4.59-7.4-7.79-1.58-6.17-1.9-13.76,2.78-18.71C521,17,523.12,14.78,526,14.21Zm-3.59,16.28c-1,5.39,3.67,10.77,9.07,10.9,3.68-.41,7.55-2.87,8.15-6.78,1-4.52.6-10-2.93-13.35-2.21-2.11-5.43-1.61-8.21-1.54C524.87,21.91,521.29,25.85,522.44,30.49Z" transform="translate(-0.5 -0.5)" fill="#fff"/><path d="M555.8,14q3,0,6.07,0c0,.55.13,1.64.18,2.18,3.47-4,9.53-3.53,13.08.09,3-2.5,7.31-3.79,11.12-2.49,2.61,1,4,3.45,5.25,5.79V46.61l-6.45.06c-.09-7.66.08-15.32-.06-23-.2-1.9-1-4.81-3.4-4.62-3.13-.66-5.07,2.74-4.88,5.46-.08,7.23-.09,14.46,0,21.69-2,.28-4.09.44-6.13.53-.47-7.44-.08-14.89-.23-22.34,0-2.05-.54-4.65-2.78-5.37a4.76,4.76,0,0,0-5.44,4.45c-.41,7.71,0,15.44-.19,23.16h-6.11C555.76,35.77,555.9,24.88,555.8,14Z" transform="translate(-0.5 -0.5)" fill="#fff"/><path d="M290.5,18.5c2.58-3.82,7.74-4.47,12-4.14,2.72.71,5.74.47,8.19,2,2,1.69,2.67,4.29,3.42,6.69-2.2,0-4.4,0-6.59,0-1.64-4.48-7.94-4.34-11.16-1.82-2.61,1.9-.21,5.72,2.4,6.08,4.66,1.83,10.45,1,14.21,4.77,3.09,2.5,2.71,7.07,1.54,10.44-3.88,6.11-12.09,6.2-18.48,5.31-4.48-.41-8.64-4.15-8.34-8.87,2.2,0,4.4,0,6.61,0,.36.81.73,1.61,1.09,2.42A10.44,10.44,0,0,0,307,41.14c1.72-1,1.56-3.27.8-4.79C303,31.77,294.88,33.77,290.14,29A9.22,9.22,0,0,1,290.5,18.5Z" transform="translate(-0.5 -0.5)" fill="#fff"/><path d="M390,15.08c4.94-1.65,10.9-1.57,15.14,1.77,3.85,3.71,5.49,8.94,5.65,14.17-7.65.13-15.31.08-23,0,.37,3.88.75,8.39,4.39,10.7a9.3,9.3,0,0,0,11.18-2.41,13.83,13.83,0,0,0,5.87-.06c0,4.55-4.48,7.31-8.41,8.34-5.61.53-12.1.2-16.18-4.23-3.13-3.18-3.15-7.83-3.6-12A15.79,15.79,0,0,1,390,15.08ZM387.79,27c5.27,0,10.52-.57,15.79-.53-.66-3.54-3.05-7.08-7-7.27C391.88,18,388.61,23,387.79,27Z" transform="translate(-0.5 -0.5)" fill="#fff"/><path d="M446.55,17.86c4.81-4.74,12.71-4.95,18.49-1.94,5,3.23,7.12,9.34,6.76,15.11-7.6.14-15.2,0-22.8.06.61,3.51.59,7.79,4,10,3.45,1.76,8.31,1.91,11-1.21,2-.36,4.06-.14,6.05-.61,1,1.53-.52,3-1.13,4.37-2.6,3.54-7.37,3.73-11.37,4.1-7,.71-14.51-5-14.67-12.3C441.82,29.4,442.56,22.7,446.55,17.86Zm4.87,3.61c-.79,1.45-2.48,3.2-1.95,4.89,5.16,0,10.33-.12,15.5.07a11.93,11.93,0,0,0-5.22-7.37C456.84,19.15,453.21,18.53,451.42,21.47Z" transform="translate(-0.5 -0.5)" fill="#fff"/><path d="M62,17.18c6.37-3.42,15.53-1.95,19.64,4.3,2.13,3.37,2.39,7.43,2.91,11.27-7.57,0-15.14,0-22.71,0-.17,4.16,1.22,9.76,5.9,10.74A9.05,9.05,0,0,0,76.93,41c2.22-.22,4.46-.07,6.69-.07-.93,3.46-3.45,6.69-7.14,7.35-4.58.92-9.78,1.79-14.08-.59C55.7,43.89,53.68,35,55.2,27.93,56.42,23.88,57.47,18.83,62,17.18Zm2.84,4.56c-1.9,1.48-2.62,3.89-3.08,6.15,5.21,0,10.43,0,15.65,0,0-3.26-2.74-5.32-4.89-7.33C69.89,20.69,67.1,20.33,64.79,21.74Z" transform="translate(-0.5 -0.5)" fill="#fff"/><path d="M113.26,16q8.74-.06,17.49,0c-.05,10.72-.07,21.43,0,32.14-2.16,0-4.32,0-6.48,0,0-8.85-.23-17.7-.31-26.56-3.55.25-7.11.18-10.67.18C113.29,19.78,113.27,17.88,113.26,16Z" transform="translate(-0.5 -0.5)" fill="#fff"/><path d="M149.39,17.25c4.35-3.07,10.32-2.87,15.05-.78,3.08,1.2,4.56,4.5,5,7.58L162.51,24c-1.64-5.06-8.91-3.66-11,.27a18.12,18.12,0,0,0,0,15.06c1.23,2.29,3.8,3.05,6.07,3.87,2.77-.56,4.38-2.74,5.37-5.21,2.37-.17,4.76,0,7.14,0-.92,4.45-3.35,9.86-8.49,10.32A15.64,15.64,0,0,1,147.13,45c-4.3-5.18-4.6-12.37-3.76-18.74A19.47,19.47,0,0,1,149.39,17.25Z" transform="translate(-0.5 -0.5)" fill="#fff"/><path d="M177.14,15.27c5.73,0,11.46,0,17.19,0q0,16.44,0,32.9c-2.17,0-4.35,0-6.52,0q0-13.51,0-27c-3.57.08-7.14.26-10.69.61C177.11,19.59,177.12,17.43,177.14,15.27Z" transform="translate(-0.5 -0.5)" fill="#fff"/><path d="M215,16.13c3.46-1.93,7.58-1,11.36-1,4.24,1.91,9,4.5,10.31,9.31,2.28,6.7,1.6,15.32-4,20.24-5.32,5.1-13.89,4.93-20,1.46C203.15,38.88,203.68,21.26,215,16.13Zm4.13,5.17c-3.94,1.54-6.78,5.87-6.09,10.12.33,3.26.89,6.88,3.52,9.15a7.85,7.85,0,0,0,9.19,1.23c5.86-3.6,6.39-12.23,3.11-17.74C226.42,21.57,222.5,19.71,219.1,21.3Z" transform="translate(-0.5 -0.5)" fill="#fff"/><path d="M248,37.47c.05-7.4,0-14.8.05-22.2l6.73,0c0,7.39.05,14.79,0,22.18.78,1.14,1.52,2.29,2.4,3.35,4.94,4,13.35,0,13.6-6.35,0-6.49.08-13-.1-19.48q3.36,0,6.74,0c-.27,10.9.07,21.8-.18,32.7l-6,0,0-4.3c-1.94,1.59-3.61,3.78-6.1,4.48-4.14.43-8.72.88-12.35-1.61C249.45,44.69,247.79,41,248,37.47Z" transform="translate(-0.5 -0.5)" fill="#fff"/><path d="M323.25,65.68c0-3.58,2.5-7.34,6.31-7.53,5.95-.27,11.92,0,17.88-.12,3.75-.34,7.59,2.69,7.61,6.55.12,6.93,0,13.87.05,20.8,8.49-.15,17,0,25.47-.08,2.93.11,6.39.19,8.44,2.64,2.54,3,1.79,7.08,1.89,10.65-.2,3.81.62,7.88-1,11.46-1.33,2.74-4.54,3.72-7.37,3.79-9.17.07-18.33-.07-27.5,0,.44,15.91-.58,31.86.8,47.74.09,2.27,1.29,4.26,2.43,6.16,5.32,1.13,11,2.22,16.29.19,4.17-1.08,9-3.22,13-.67,3.18,1.8,3.52,5.86,3.38,9.13-.23,4.35.44,8.77-.4,13.06-.63,3.81-4.72,5.31-8,6.15a76.58,76.58,0,0,1-31.93,1.16c-4-1.29-8.2-2.32-11.53-5-8.77-5.23-14-15.22-14.75-25.24-.29-3.71-1-7.38-1.08-11.11,0-14.23,0-28.47,0-42.71-15.62.2-31.24.22-46.84-.69-6.32-.29-12.82-.81-19,1-2.77.8-5.62,3.42-4.35,6.56a11.64,11.64,0,0,0,4.57,3c8.93,2.36,18.09,3.66,27.08,5.74,5.57,1.86,11.61,2.93,16.37,6.61,4.19,3.3,8.54,6.93,10.67,12,2.62,7.49,4.09,15.92,1.41,23.6-2.53,10.61-11.65,17.94-21,22.52-4,2.32-8.67,2.78-13,4.31-6.84,1.18-13.8.94-20.71.93-11.65-.35-22.88-3.9-33.56-8.33a13.31,13.31,0,0,1-4.64-5.11c-.08-6.79,0-13.59,0-20.38a7.73,7.73,0,0,1,11.24-6c9.22,5.62,19.28,10.61,30.18,11.61,6.19.13,12.95.59,18.45-2.77,2.42-1.35,2.06-4.28,2.08-6.61-7.65-4-16.5-4.91-24.85-6.74a58.32,58.32,0,0,1-26.69-10.57c-11.61-10.54-13.74-30.22-3.74-42.54,4.45-6.28,11-10.68,18-13.72,5.55-1.15,10.85-3.84,16.63-3.5A81.12,81.12,0,0,1,302.39,90c6.95-1.68,13.59-5.15,20.91-4.86C323.2,78.64,323.22,72.16,323.25,65.68Z" transform="translate(-0.5 -0.5)" fill="#fff"/><path d="M436.41,83.38c14.9-2.69,31.13-1.16,44.2,6.93,3.58,3.09,7.82,5.6,10.3,9.77,2.8,4.56,5.85,9.22,6.93,14.55.88,5.62,2.76,11.16,2.42,16.92-.11,3.87.15,7.76-.14,11.63a7,7,0,0,1-7.51,6c-22.27,0-44.53,0-66.8,0,1.4,7,5.89,13.54,12.53,16.48,13,6,28.3,3.21,40.71-2.91,4-1.6,7-5.5,11.51-5.76,3.88,0,7.83,3.45,7.62,7.5.05,6.32,0,12.65,0,19,.11,2.36-1.93,4.22-3.92,5.11a152.18,152.18,0,0,1-19.7,6.89c-6.61,1.55-13.45,1.61-20.18,2.37-8.1-.48-16.31-.89-24.12-3.26-10.47-3.72-20.3-9.93-27.07-18.85-8.56-12.18-11.36-27.61-9.93-42.23,1-5.08,1.51-10.25,3-15.22,4-10.58,10.87-20.2,20.23-26.68A63.64,63.64,0,0,1,436.41,83.38Zm1,29c-4.49,1.74-7.67,5.54-9.94,9.65,13.56-.1,27.13.07,40.7-.09-1.51-3.33-3-7.06-6.51-8.81C454.15,109.45,445.13,109.52,437.39,112.41Z" transform="translate(-0.5 -0.5)" fill="#fff"/><path d="M18.65,95.48C29.09,86.65,43,82.42,56.55,83c11.56.31,23.67,3.1,32.6,10.85a50.61,50.61,0,0,1,16.18,23c4.51,10.9,4.49,23,3.42,34.62-1,13.35-8.09,25.57-17.41,34.92-16.66,14-41.49,16.27-61.08,7.39C19.29,189,11,179.44,6.09,168.65,1.66,160.87,1.19,151.7.5,143V139.2c.48-6.7.9-13.48,2.93-19.93A64.55,64.55,0,0,1,18.65,95.48Zm34.46,15.88a22.1,22.1,0,0,0-13.5,6.16c-5.72,6.59-6,15.71-6.34,24,.49,5.77.37,11.83,3.11,17.11,2.78,6.71,9.67,12.11,17.14,11.55,3.41-.06,7,.47,10.11-1.34,8.2-3.23,11.57-12.32,13.1-20.32.45-5.73-.19-11.48-.78-17.17a26,26,0,0,0-5.52-13.77A22.07,22.07,0,0,0,53.11,111.36Z" transform="translate(-0.5 -0.5)" fill="#fff"/><path d="M545.68,93a54.44,54.44,0,0,1,38.4-6.75c3.21.43,6.54,2.17,7.42,5.53v20.7c-1.07,3.6-5.08,6.17-8.76,5.08-6-1.53-12.12-1.53-18.21-1.25-7,.87-13.28,4.38-19.15,8.08q0,32.12,0,64.22a7,7,0,0,1-5.8,7.14c-4.34.52-8.73.08-13.08.23-3.76,0-8.15.57-11-2.41-1.8-1.42-1.63-3.9-1.77-5.95q0-46.56,0-93.13c0-2.36.15-5,2-6.75,2.83-2.83,7.18-2.38,10.85-2.42,4.84.2,9.81-.53,14.54.81C544.06,87,545.16,90.18,545.68,93Z" transform="translate(-0.5 -0.5)" fill="#fff"/><path d="M106.07,92.25a14.15,14.15,0,0,1,6.18-7c6.12.22,12.25,0,18.37.11,3.07.2,7,.62,8.26,4,8.25,18.85,16.67,37.64,24.73,56.58,7.79-17.09,15.29-34.32,22.93-51.48,1.38-3,2.41-6.51,5.43-8.28,1.63-1.09,3.66-.79,5.51-.85,5,.07,10,0,15.07,0,2.73-.22,5.25,1.35,7,3.34,1.84,2.35,1.26,5.63.07,8.13q-29.19,64.8-58.34,129.61c-.88,2.34-3,3.7-5,5.13H133.46a8.82,8.82,0,0,1-5.09-5.52c-.48-2.48.59-4.86,1.64-7,5.55-11.55,11-23.16,16.53-34.69C133.05,153.59,119.18,123.08,106.07,92.25Z" transform="translate(-0.5 -0.5)" fill="#fff"/></svg>