<svg width="104" height="31" xmlns="http://www.w3.org/2000/svg"><g fill="#D81428" fill-rule="evenodd"><path d="M102.91 5.198l-1.148-.176h-2.116l-.794.176-.794.177-.794.265-.705.354-.706.353V6.26l-.088-.442-.265-.442-.44-.265-.53-.088h-2.999l-.44.088-.442.265-.264.442-.089.442v16.964l.089.53.264.353.441.266.441.088h3.087l.441-.088.441-.266.265-.441.088-.442V11.825l.882-.53.882-.442.53-.176.529-.177.529-.089h1.94l1.147.177.265.089h.176l.441-.09.44-.264.265-.442.09-.53V6.435l-.09-.441-.176-.354-.352-.265-.442-.177zm-27.785 6.273l.353-.618.44-.53.618-.442.618-.265.794-.176.97-.089.97.089.705.176.618.265.353.265.352.442.265.618.088.265h-7.144zM85.621 6.79l-.706-.53-.617-.53-.794-.354-.794-.354-.794-.265-.97-.177-.881-.087-.97-.089-1.06.089-1.057.088-.97.265-.883.265-.882.442-.882.442-.794.618-.705.619-.618.795-.617.795-.442.884-.44.883-.265.972-.176 1.06-.176 1.06v2.211l.176 1.06.176.971.353.972.44.972.441.795.618.795.705.707.794.618.794.53.882.443.97.441 1.059.265 1.058.177 1.06.088 1.234.089.882-.089.97-.088.882-.088.882-.176 1.676-.53 1.588-.62.352-.175.265-.266.177-.353v-3.447l-.088-.53-.265-.353-.44-.354-.441-.088h-.177l-.44.088-.442.265-.264.177-.53.354-1.411.618-.794.265-.882.177-.794.088-.794.088-1.147-.088-.97-.265-.882-.354-.618-.441-.617-.619-.44-.883-.177-.354-.088-.53H86.68l.441-.088.44-.265.265-.442.088-.53v-2.476l-.176-.971-.177-.884-.176-.884-.353-.795-.441-.796-.441-.706-.529-.62zM53.78 14.476l.353.353.353.442.264.441.176.53.265.972.088 1.149v.707l-.177.706-.176.619-.265.618-.353.619-.44.53-.53.53-.617.442-.618.441-.705.354-.706.353-.794.177-.794.265-.794.088-.882.088H45.4l-.97-.088-.97-.177-.97-.176-1.588-.53-1.411-.53-.265-.266-.265-.265-.176-.265V18.98l.088-.441.265-.442.44-.265.442-.088h.176l.353.088.353.176.705.442.706.353.706.354.794.265.705.265.794.177.706.088h1.499l.706-.088.617-.177.353-.176.265-.177.088-.176.088-.177v-.707l-.088-.088-.176-.088-.353-.177-1.323-.353-1.588-.353-1.94-.354-1.235-.353-1.059-.53-.97-.53-.44-.354-.353-.353-.529-.796-.441-.971-.265-.884-.088-1.06.088-.619.088-.706.176-.619.265-.53.353-.619.44-.53.441-.53.53-.442.617-.441.617-.354.706-.353.794-.177.793-.265.794-.176h.883l.97-.089 1.235.089 1.146.088.97.265.883.177 1.146.441.441.177 2.646-.795 1.764-.088h.882l.618.088.176.088.088.177v.265l-.088.265-.264.796-.353.884-.97 1.59-.442.707h-5.732l-4.146-.177h-.705l-.706.088-.529.089-.441.176-.353.265-.088.177-.088.265.088.442.176.088.177.177.352.176 1.147.265 1.764.354 1.765.353 1.146.353 1.06.354.881.53.793.707z"/><path d="M67.452 19.247h-.177l-.529.088-.353.089-.618.177-.617.176h-.618l-.882-.088-.44-.088-.265-.09-.176-.264-.177-.442-.088-.441-.088-1.944V9.97h4.94l.528-.089.442-.265.264-.442.088-.53V6.26l-.088-.442-.264-.442-.442-.265-.529-.088h-4.94V1.399l-.088-.442-.264-.441L61.63.25l-.441-.088H58.19l-.53.088-.44.266-.265.441-.088.442v16.258l.088.883.088.707.088.795.177.707.265.619.352.618.353.618.442.442.528.442.53.353.529.354.618.177.705.265.705.088.707.088h1.675l.97-.088h.088l.971-.177.97-.265.353-.177.353-.265.176-.353.088-.442v-2.562l-.088-.442-.264-.441-.442-.266-.44-.088zM37.55 5.022h-3.527l-.353.176-.264.265-.176.266-4.411 9.984-4.322-9.896-.176-.354-.265-.265-.352-.088-.354-.088h-3.617l-.264.176-.265.177-.177.265-.176.265-.088.265.088.354.088.265 6.88 15.639-3.087 6.538-.088.265v.619l.176.353.177.177.264.265.265.088h3.969l.265-.177.353-.264.176-.265L38.697 6.789l.088-.265v-.619l-.176-.353-.177-.177-.264-.177-.353-.176h-.264zM13.294 17.215l-.352.883-.441.707-.53.53-.617.354-.705.265H8.797l-.706-.265-.617-.354-.53-.53-.441-.707-.353-.883-.176-1.06-.088-1.414.088-1.325.176-1.15.353-.883.441-.706.53-.442.617-.353.705-.265.97-.089.883.089.705.265.618.353.529.442.44.706.353.884.177 1.149.088 1.325v1.414l-.265 1.06zm3.352-9.896l-.705-.619-.706-.618-.794-.442-.882-.441-.882-.265-.97-.177-.97-.177H8.708l-.97.177-.97.177-.882.353-.882.353-.794.53-.794.531-.617.707-.618.706-.529.796-.44.884-.442.883-.265.972-.176.972-.089 1.06-.088 1.15.088 1.06.089 1.06.176.971.265.972.441.884.441.883.53.795.617.707.617.706.794.53.794.531.882.353.882.354.97.176.97.177h2.029l.97-.177.97-.176.882-.354.882-.353.794-.53.794-.53.618-.707.617-.707.53-.795.44-.883.441-.884.265-.972.176-.972.088-1.06.088-1.149-.088-1.06-.088-1.06-.176-.973-.353-.971-.353-.972-.44-.796-.53-.795-.618-.795z"/></g></svg>