<svg width="20" height="11" viewBox="0 0 20 11" fill="none" xmlns="http://www.w3.org/2000/svg">
  <path fill-rule="evenodd" clip-rule="evenodd" d="M10.8895 10.5788C10.8895 10.5788 11.2168 10.5431 11.3844 10.3664C11.5379 10.2044 11.5325 9.89885 11.5325 9.89885C11.5325 9.89885 11.5122 8.47197 12.1871 8.26129C12.8523 8.05409 13.7063 9.64116 14.6128 10.2514C15.2975 10.7128 15.8172 10.6119 15.8172 10.6119L18.2393 10.5788C18.2393 10.5788 19.5058 10.5022 18.9054 9.5245C18.8557 9.44441 18.555 8.80105 17.105 7.47951C15.5857 6.09616 15.7897 6.3199 17.6185 3.92667C18.7324 2.46932 19.1776 1.57959 19.0384 1.19915C18.9063 0.835245 18.0868 0.93188 18.0868 0.93188L15.3604 0.948421C15.3604 0.948421 15.1582 0.921433 15.0083 1.00936C14.862 1.09555 14.7671 1.29665 14.7671 1.29665C14.7671 1.29665 14.336 2.42405 13.7604 3.38343C12.5463 5.40666 12.0611 5.51374 11.8625 5.38838C11.4004 5.09499 11.5157 4.21135 11.5157 3.58367C11.5157 1.62225 11.819 0.804775 10.9259 0.593224C10.6297 0.522707 10.4115 0.476566 9.6532 0.468731C8.68027 0.459155 7.85723 0.472213 7.39072 0.695952C7.0803 0.844821 6.84084 1.17738 6.98718 1.19654C7.16722 1.22004 7.57519 1.30449 7.7916 1.59352C8.07097 1.967 8.06122 2.8045 8.06122 2.8045C8.06122 2.8045 8.22175 5.11328 7.68606 5.3997C7.31888 5.59645 6.81512 5.19511 5.73221 3.35906C5.1779 2.41883 4.75928 1.37936 4.75928 1.37936C4.75928 1.37936 4.67857 1.18522 4.53401 1.08075C4.35929 0.954515 4.11539 0.915338 4.11539 0.915338L1.52475 0.93188C1.52475 0.93188 1.1354 0.942326 0.992607 1.10861C0.86578 1.25574 0.982851 1.56131 0.982851 1.56131C0.982851 1.56131 3.0112 6.21978 5.30827 8.56774C7.41466 10.7198 9.80575 10.5788 9.80575 10.5788H10.8895Z" fill="white"></path>
</svg>
