<?xml version="1.0" standalone="no"?>
<!DOCTYPE svg PUBLIC "-//W3C//DTD SVG 20010904//EN"
 "http://www.w3.org/TR/2001/REC-SVG-20010904/DTD/svg10.dtd">
<svg version="1.0" xmlns="http://www.w3.org/2000/svg"
 width="512.000000pt" height="512.000000pt" viewBox="0 0 512.000000 512.000000"
 preserveAspectRatio="xMidYMid meet">

<g transform="translate(0.000000,512.000000) scale(0.100000,-0.100000)"
fill="#000000" stroke="none">
<path d="M1020 3910 c-393 -71 -670 -278 -853 -637 -68 -134 -92 -206 -118
-353 -41 -240 -33 -532 22 -760 39 -164 175 -407 314 -557 99 -108 256 -207
425 -267 479 -173 1056 -57 1362 273 177 192 297 432 335 674 24 150 24 502 0
622 -106 533 -436 893 -912 995 -147 32 -431 37 -575 10z m362 -641 c184 -38
309 -162 358 -354 26 -100 44 -313 37 -439 -12 -238 -129 -446 -294 -524 -55
-26 -66 -27 -208 -27 -145 0 -152 1 -209 29 -78 38 -172 133 -214 216 -54 109
-66 186 -67 430 0 190 3 225 23 304 28 111 63 176 128 241 111 109 285 158
446 124z"/>
<path d="M2568 3860 c-39 -21 -108 -112 -108 -141 0 -24 18 -65 493 -1140
l437 -987 -101 -207 c-239 -494 -319 -674 -319 -718 0 -51 31 -106 79 -142
l35 -25 262 0 261 0 47 35 c25 20 55 53 65 73 10 20 323 714 696 1541 473
1054 678 1519 681 1550 7 60 -17 106 -74 146 l-44 30 -236 3 c-149 2 -250 -1
-273 -7 -72 -21 -93 -59 -313 -556 -320 -723 -368 -827 -377 -818 -4 4 -46 96
-92 203 -229 528 -479 1093 -493 1115 -33 51 -78 59 -344 62 -230 3 -247 2
-282 -17z"/>
</g>
</svg>
